<?xml version="1.0" standalone="no"?>
<!DOCTYPE svg PUBLIC "-//W3C//DTD SVG 20010904//EN"
 "http://www.w3.org/TR/2001/REC-SVG-20010904/DTD/svg10.dtd">
<svg version="1.0" xmlns="http://www.w3.org/2000/svg"
 width="923.000000pt" height="1280.000000pt" viewBox="0 0 923.000000 1280.000000"
 preserveAspectRatio="xMidYMid meet">
<metadata>
Created by potrace 1.15, written by Peter Selinger 2001-2017
</metadata>
<g transform="translate(0.000000,1280.000000) scale(0.100000,-0.100000)"
fill="#000000" stroke="none">
<path d="M4843 12786 c-169 -43 -291 -167 -338 -346 -8 -30 -76 -500 -151
-1045 -146 -1063 -148 -1089 -106 -1172 27 -52 84 -108 154 -150 47 -29 73
-35 232 -58 99 -14 183 -28 186 -30 4 -2 5 -17 3 -32 -20 -158 -173 -1999
-173 -2085 l0 -115 -112 -5 c-84 -4 -129 -11 -173 -27 -227 -85 -475 -134
-1360 -266 -921 -138 -1258 -212 -1502 -332 -106 -51 -194 -129 -213 -189 -14
-42 -6 -445 10 -473 4 -9 31 -25 60 -36 29 -11 54 -23 56 -26 2 -4 -35 -26
-82 -50 -121 -60 -194 -130 -244 -233 -48 -101 -60 -158 -66 -316 -4 -97 -20
-207 -74 -495 -38 -203 -135 -721 -215 -1150 -198 -1059 -343 -1834 -478
-2556 l-113 -605 -60 -60 c-72 -72 -91 -111 -78 -162 7 -29 19 -42 54 -62 43
-24 53 -25 205 -25 158 0 161 0 220 30 52 26 61 35 69 67 13 50 -6 92 -71 153
l-52 50 99 405 c109 440 209 847 409 1660 70 289 175 712 231 940 56 228 135
550 175 715 41 165 119 485 175 710 56 226 108 443 116 484 28 147 64 183 228
236 60 20 115 39 123 44 9 5 47 -1 97 -16 313 -92 760 -187 1166 -248 417 -62
695 -88 1290 -118 l45 -2 -3 -45 c-4 -52 -139 -1927 -145 -2010 -3 -37 -20
-88 -51 -158 -56 -124 -60 -170 -18 -212 43 -42 99 -54 252 -54 158 0 228 14
276 56 64 57 55 112 -47 271 -28 44 -59 98 -69 121 l-18 41 139 985 c76 542
138 991 139 998 0 18 86 16 93 -3 9 -22 72 -50 192 -85 61 -18 121 -38 135
-45 29 -15 73 -60 89 -92 6 -12 162 -827 347 -1810 184 -983 404 -2158 489
-2611 85 -453 155 -828 154 -835 0 -7 -23 -29 -50 -50 -89 -68 -110 -130 -63
-186 42 -50 111 -65 294 -66 169 0 234 14 265 58 36 51 13 110 -75 190 l-61
55 -44 353 c-24 195 -82 665 -129 1044 -47 380 -135 1090 -196 1580 -222 1787
-248 2012 -249 2102 -1 208 -80 376 -219 464 l-42 27 791 472 c435 259 793
470 796 467 5 -6 61 -198 513 -1762 171 -594 380 -1314 463 -1600 114 -391
151 -532 150 -570 -1 -27 -15 -90 -33 -140 -17 -49 -33 -116 -37 -147 -8 -80
24 -135 99 -169 48 -22 67 -24 198 -24 162 0 226 15 279 64 67 63 50 146 -64
326 -42 65 -82 130 -90 146 -14 26 -68 252 -495 2074 -94 402 -232 989 -306
1305 -75 316 -143 625 -152 686 l-16 112 32 36 c74 85 97 179 68 281 -20 66
-36 96 -82 145 l-33 35 79 765 c43 421 90 884 105 1030 14 146 28 275 30 286
5 20 12 22 112 26 92 3 117 8 171 33 70 31 127 89 162 161 29 58 41 128 105
609 114 843 206 1511 215 1550 5 22 10 74 10 115 1 233 -132 410 -348 465 -57
15 -80 14 -304 -4 -474 -40 -635 -46 -1208 -45 -434 0 -622 4 -810 17 -441 32
-890 84 -1220 142 -187 34 -244 37 -307 21z m766 -2901 c658 -81 1362 -139
1851 -151 124 -3 230 -7 236 -9 7 -2 3 -72 -12 -227 -13 -122 -55 -533 -94
-913 -39 -379 -76 -759 -82 -843 -11 -141 -14 -153 -33 -157 -11 -3 -110 -14
-220 -25 -599 -60 -1073 -65 -1520 -14 -137 15 -411 58 -481 75 l-41 11 -6
121 c-6 104 6 264 78 1097 94 1083 92 1060 107 1060 5 0 103 -11 217 -25z"/>
</g>
</svg>
